<?xml version="1.0" encoding="utf-8"?>
<!-- Generator: Adobe Illustrator 24.3.0, SVG Export Plug-In . SVG Version: 6.00 Build 0)  -->
<svg version="1.1" xmlns="http://www.w3.org/2000/svg" xmlns:xlink="http://www.w3.org/1999/xlink" x="0px" y="0px"
	 viewBox="0 0 595.28 841.89" style="enable-background:new 0 0 595.28 841.89;" xml:space="preserve">
<style type="text/css">
	.st0{fill:#4892CF;}
</style>
<g id="Layer_1">
</g>
<g id="Layer_2">
	<g>
		<path class="st0" d="M156.73,649.98c9.35-33.54,44.66-52.5,77.86-42c15.19,4.81,31.34,7.85,47.21,7.85
			c58.01,0,85.2-34.15,85.2-76.83c0-44.82-22.66-69.37-81.57-94.98c-78.85-33.08-116.01-84.31-116.01-146.2
			c0-83.24,57.1-151.54,151.36-151.54c44.41,0,83.38,14.94,107.86,32.01l0,0c-9.34,32-42.28,50.61-74.66,42.67
			c-10.7-2.63-22.43-4.25-35.01-4.25c-47.13,0-73.41,32.01-73.41,70.43c0,42.69,26.28,61.9,83.39,87.51
			c76.13,34.15,115.11,78.97,115.11,155.8c0,90.71-59.82,154.74-164.05,154.74C231.95,685.2,187.54,671.33,156.73,649.98
			L156.73,649.98z"/>
	</g>
	<path class="st0" d="M206.5,291.77h112.95v0c0-11.6-9.4-21-21-21H206.5V291.77z"/>
	<path class="st0" d="M300.38,535h122.53v-21H321.38C309.78,514,300.38,523.4,300.38,535L300.38,535z"/>
	<path class="st0" d="M248.69,580h151v-21h-130C258.09,559,248.69,568.4,248.69,580L248.69,580z"/>
</g>
</svg>
